<?xml version="1.0" standalone="no"?>
<!DOCTYPE svg PUBLIC "-//W3C//DTD SVG 20010904//EN"
 "http://www.w3.org/TR/2001/REC-SVG-20010904/DTD/svg10.dtd">
<svg version="1.0" xmlns="http://www.w3.org/2000/svg"
 width="750.000000pt" height="750.000000pt" viewBox="0 0 750.000000 750.000000"
 preserveAspectRatio="xMidYMid meet">
<metadata>
Created by potrace 1.14, written by Peter Selinger 2001-2017
</metadata>
<g transform="translate(0.000000,750.000000) scale(0.100000,-0.100000)"
fill="#000000" stroke="none">
<path d="M0 3750 l0 -3750 1269 0 c1006 0 1271 3 1275 13 5 9 7 9 12 0 3 -7
13 -13 22 -13 15 1 15 2 -1 14 -9 7 -17 21 -17 30 0 9 -8 16 -21 16 -11 0 -17
5 -14 10 4 6 -5 10 -19 10 -14 0 -26 4 -26 10 0 5 44 8 105 7 58 -1 105 -5
105 -8 0 -11 -57 -69 -68 -69 -7 0 -12 -4 -12 -10 0 -25 56 -8 92 27 l38 37 0
-37 0 -37 104 0 103 0 27 40 c25 38 35 80 18 80 -5 0 -15 -11 -22 -25 -20 -37
-27 -30 -20 22 4 41 9 48 43 66 l38 20 28 -27 c15 -15 45 -60 67 -101 l39 -75
519 1 c374 1 523 4 530 13 6 6 12 36 14 66 2 30 7 71 12 90 l8 35 1 -32 c1
-17 5 -34 10 -37 5 -3 12 -23 15 -43 11 -60 27 -93 46 -93 13 0 17 6 13 20 -4
14 0 20 12 20 12 0 16 -6 12 -20 -4 -16 0 -20 19 -20 18 0 25 7 30 28 3 15 12
44 20 65 8 20 14 46 14 57 0 11 5 20 11 20 6 0 9 6 6 13 -3 7 2 24 10 38 13
22 14 23 10 2 -3 -12 -1 -23 4 -25 5 -2 11 -24 12 -50 1 -25 5 -44 8 -42 10 6
21 -64 14 -86 -6 -19 13 -20 1489 -20 l1496 0 0 3750 0 3750 -3750 0 -3750 0
0 -3750z m3050 1566 c163 -47 315 -110 459 -190 46 -25 85 -46 88 -46 5 0 278
-182 312 -208 23 -18 21 -19 -145 -31 -93 -6 -207 -18 -254 -26 -174 -31 -411
-96 -529 -147 -24 -10 -45 -17 -47 -15 -5 5 -11 648 -6 675 3 15 10 21 21 18
9 -3 54 -16 101 -30z m-480 -515 c0 -4 12 -26 27 -47 14 -21 41 -64 58 -94 17
-30 39 -67 49 -82 l18 -27 -59 -29 c-119 -60 -199 -102 -230 -123 -18 -11 -33
-18 -33 -15 0 4 14 33 30 66 32 63 120 316 120 344 0 9 5 16 10 16 6 0 10 -4
10 -9z m1761 -9 c32 -13 36 -24 55 -127 21 -118 21 -118 -23 -111 -40 6 -82
-8 -53 -18 8 -2 38 -7 65 -11 62 -8 86 -23 116 -72 22 -35 24 -49 24 -163 0
-139 -13 -180 -69 -210 -25 -14 -28 -14 -42 4 -21 29 -17 39 11 34 17 -4 25
-1 25 8 0 8 -16 16 -40 20 -28 5 -48 16 -67 38 -14 17 -42 41 -62 53 l-36 22
32 1 c53 0 47 18 -9 24 -130 13 -624 22 -940 17 -59 -1 -80 -17 -30 -23 19 -2
-10 -15 -103 -46 -131 -44 -365 -152 -485 -225 -76 -46 -229 -159 -230 -169 0
-16 20 -6 81 39 186 136 496 297 689 357 30 10 68 24 83 33 16 8 31 13 33 10
3 -2 -20 -19 -50 -36 -92 -52 -156 -152 -168 -264 -3 -25 -12 -32 -83 -61
-289 -118 -688 -373 -802 -512 -31 -39 -35 -48 -25 -65 14 -23 16 -49 3 -49
-20 0 -62 70 -91 149 -30 82 -30 82 -14 144 8 34 34 100 57 147 23 47 43 88
45 93 2 4 -3 7 -11 7 -16 0 -107 -166 -107 -194 0 -24 -18 -19 -50 13 -39 39
-44 68 -25 142 33 132 102 230 208 300 34 21 65 39 69 39 4 0 8 7 8 14 0 31
-101 -27 -182 -103 l-38 -35 0 35 c0 48 40 101 141 187 93 79 239 164 491 286
258 125 364 165 588 220 245 61 388 75 735 72 152 -2 260 -7 276 -14z m-1446
-119 c-3 -8 -5 -23 -5 -34 0 -10 -6 -19 -13 -19 -6 0 -34 -12 -61 -26 -26 -14
-45 -21 -41 -15 7 12 -19 44 -28 34 -3 -3 -9 7 -13 21 -7 31 -4 36 25 39 11 1
21 5 21 10 0 4 27 7 60 6 48 -2 60 -5 55 -16z m979 -401 l110 -2 -45 -29 c-54
-35 -90 -73 -122 -129 l-24 -43 -31 54 c-32 57 -84 106 -139 132 -18 9 -33 17
-33 19 0 3 65 2 284 -2z m347 -31 c68 -29 125 -85 160 -156 29 -60 31 -71 27
-142 -5 -77 -27 -141 -62 -176 -22 -21 -93 -10 -129 19 -15 13 -46 28 -68 34
-48 13 -258 40 -310 40 l-37 0 4 90 c4 102 22 154 74 213 36 42 105 86 153 98
47 12 137 2 188 -20z m-589 -23 c101 -55 148 -139 148 -266 0 -113 -69 -215
-179 -265 -66 -31 -188 -30 -253 0 -141 67 -206 209 -163 358 15 49 29 71 79
121 77 77 123 95 228 90 65 -3 88 -10 140 -38z m-473 -349 c28 -92 102 -178
184 -213 21 -8 37 -18 37 -21 0 -4 -9 -20 -21 -36 -28 -39 -59 -130 -59 -172
0 -45 46 -108 103 -142 85 -49 162 -58 467 -51 158 3 320 12 380 20 58 9 120
16 138 16 39 0 39 -5 -8 -107 -53 -115 -132 -204 -270 -305 -94 -69 -163 -104
-243 -124 -95 -23 -95 -23 -73 -39 11 -9 26 -11 40 -6 11 5 38 11 59 15 l39 7
-26 -48 c-32 -58 -115 -171 -186 -253 -40 -46 -55 -58 -65 -50 -11 9 -12 7 -8
-9 6 -22 -41 -78 -172 -205 -143 -140 -351 -312 -397 -329 -10 -3 -52 -29 -93
-57 -42 -28 -84 -50 -93 -48 -13 2 -19 17 -23 59 -3 31 -14 69 -24 86 -31 52
-104 91 -161 84 -11 -1 -24 153 -24 285 l0 62 53 20 c28 12 79 30 112 40 35
11 60 25 60 33 0 24 -33 22 -123 -9 -220 -76 -431 -200 -487 -286 -14 -21 -25
-24 -113 -29 -251 -15 -565 -170 -661 -328 -21 -34 -25 -31 -36 26 -29 149 56
336 227 507 174 172 373 287 768 443 102 40 192 75 200 77 8 3 42 -8 75 -23
143 -64 317 -105 389 -92 47 9 28 18 -74 36 -129 22 -262 71 -428 160 -99 52
-143 82 -168 113 -19 22 -34 45 -34 50 0 16 83 91 125 113 64 33 75 45 75 83
0 39 27 149 40 162 4 4 11 -26 15 -68 4 -42 9 -76 11 -76 1 0 18 9 36 19 18
11 53 24 78 31 76 19 75 18 57 38 -37 41 -69 274 -53 384 l7 46 119 61 c113
59 182 89 206 90 6 1 16 -17 23 -40z m1286 -344 c33 -2 71 -8 85 -13 l25 -10
-32 -12 c-18 -7 -30 -16 -27 -21 3 -5 -9 -9 -27 -9 -18 0 -41 -8 -52 -17 -17
-16 -53 -18 -386 -21 -361 -4 -430 1 -439 28 -3 9 1 11 12 7 9 -4 15 -3 11 2
-10 18 141 53 325 75 34 4 383 -2 505 -9z m140 -35 c3 -5 1 -10 -4 -10 -6 0
-11 5 -11 10 0 6 2 10 4 10 3 0 8 -4 11 -10z m-375 -728 c0 -125 -83 -318
-220 -514 -73 -104 -314 -354 -420 -437 -39 -30 -70 -56 -70 -57 0 -52 392
290 475 414 14 20 50 73 81 117 103 148 194 367 194 466 0 54 5 57 57 32 79
-37 112 -156 94 -335 -14 -134 -29 -182 -105 -331 -100 -197 -191 -317 -380
-500 -124 -121 -424 -354 -659 -511 -64 -44 -115 -81 -113 -84 21 -21 552 352
729 512 245 223 380 399 491 644 40 88 76 216 76 273 0 36 26 5 51 -59 100
-267 -78 -732 -405 -1057 -50 -49 -172 -151 -272 -225 -254 -190 -242 -180
-219 -173 49 16 339 221 454 322 60 52 157 158 226 245 115 147 206 333 255
520 17 66 18 68 30 45 7 -13 15 -56 18 -94 8 -124 -57 -324 -171 -530 -122
-221 -179 -298 -337 -460 -259 -266 -416 -391 -706 -562 -405 -240 -498 -279
-688 -289 -189 -11 -244 18 -266 141 -8 47 -9 85 -3 115 8 45 9 45 53 48 112
6 218 25 293 53 45 17 123 44 172 61 88 30 139 58 104 58 -9 0 -101 -29 -205
-64 -154 -52 -206 -66 -280 -71 -50 -4 -101 -4 -112 0 -42 13 -21 25 43 25 91
0 375 91 375 120 0 5 -19 3 -42 -5 -255 -82 -283 -89 -362 -87 -87 1 -115 14
-146 65 -35 57 -22 241 20 293 8 9 21 9 58 -3 35 -11 74 -13 153 -9 109 6 139
11 139 28 0 5 -48 6 -123 2 -164 -9 -237 14 -237 74 0 22 3 24 33 17 67 -14
347 -17 392 -5 81 23 165 122 165 195 0 13 8 29 19 34 42 23 65 124 41 186 -8
22 -6 32 14 58 47 61 42 100 -20 183 l-23 32 112 73 c61 40 155 108 209 151
264 213 582 567 689 769 25 47 43 65 83 88 28 17 76 48 106 71 50 37 56 39 67
23 8 -10 13 -47 13 -91z m-1612 59 c11 -6 10 -9 -5 -13 -23 -6 -45 1 -37 13 7
11 25 11 42 0z m-53 -21 c3 -5 -1 -10 -9 -10 -9 0 -16 5 -16 10 0 6 4 10 9 10
6 0 13 -4 16 -10z m-287 -797 c-3 -34 -6 -38 -33 -41 -123 -12 -347 -129 -466
-242 -69 -66 -159 -208 -159 -251 0 -39 -25 -14 -67 70 -50 96 -53 124 -17
177 60 90 137 152 270 217 152 75 261 104 392 106 l83 1 -3 -37z m113 -32
c-11 -7 -9 -11 8 -20 11 -7 21 -17 21 -23 0 -7 -4 -7 -12 0 -7 6 -26 12 -42
14 -28 3 -29 4 -12 21 10 9 25 17 34 17 14 0 14 -2 3 -9z m179 -29 c0 -14 -23
-32 -42 -32 -21 0 -22 6 -5 25 13 15 47 20 47 7z m-267 -26 l16 -24 -105 -52
c-165 -82 -294 -214 -389 -396 -19 -36 -37 -81 -41 -100 l-6 -34 -28 17 c-15
10 -49 36 -75 57 -44 37 -46 42 -40 75 11 61 74 160 149 235 73 74 137 126
154 126 6 0 12 3 14 8 5 12 118 63 193 88 94 31 138 31 158 0z m296 3 c-8 -5
-21 -9 -29 -9 -12 1 -11 4 4 15 10 8 23 12 29 8 5 -3 3 -9 -4 -14z m198 -51
c38 -41 53 -69 53 -101 0 -20 -6 -26 -36 -31 -44 -9 -40 -28 10 -38 56 -12 91
-33 126 -78 37 -47 48 -105 26 -133 -8 -11 -32 -25 -53 -32 -45 -16 -50 -38
-8 -45 23 -4 31 -12 39 -38 18 -64 -26 -141 -88 -153 -30 -6 -31 -28 -2 -39
l27 -10 -21 -39 c-24 -49 -89 -94 -153 -108 -26 -6 -100 -9 -165 -7 -101 3
-136 9 -237 39 -119 37 -274 99 -320 129 -20 13 -25 25 -25 56 0 72 64 204
150 312 58 71 212 224 251 247 43 25 60 26 116 6 42 -15 93 -7 93 13 0 15 36
51 66 67 16 8 49 15 75 15 38 0 50 -5 76 -32z m-413 -11 c16 -12 13 -17 -38
-56 -30 -24 -97 -87 -148 -140 -144 -150 -228 -289 -244 -403 -4 -27 -12 -48
-18 -47 -6 0 -40 17 -76 38 -62 35 -65 39 -62 71 9 83 107 244 215 353 144
144 312 227 371 184z m2242 -305 c21 -88 27 -129 20 -134 -6 -3 -38 -9 -71
-11 -33 -3 -77 -9 -98 -13 l-38 -7 39 69 c21 38 54 106 73 150 19 45 36 80 39
77 3 -2 19 -61 36 -131z m54 -209 c7 -27 14 -56 16 -65 6 -21 -3 -24 -171 -43
-77 -8 -150 -18 -162 -20 -33 -8 -29 9 18 81 44 67 34 62 164 88 11 2 43 4 71
5 l51 1 13 -47z m24 -130 c3 -10 8 -39 12 -65 l6 -48 -63 0 c-60 0 -197 -18
-299 -39 -25 -6 -66 -13 -92 -16 -62 -8 -63 7 -7 72 48 56 89 80 150 88 228
30 286 32 293 8z m22 -141 c16 -10 34 -143 20 -147 -6 -2 -65 -9 -131 -16 -66
-7 -129 -16 -140 -21 -13 -5 -1 -7 35 -3 145 13 226 15 238 7 18 -12 31 -113
34 -271 l3 -135 -35 -8 c-19 -5 -44 -12 -56 -14 -16 -4 -23 0 -27 15 -5 21
-37 30 -37 11 0 -5 9 -32 20 -60 25 -64 26 -118 3 -128 -10 -3 -42 -7 -72 -7
l-53 0 -16 47 c-19 60 -42 64 -42 7 0 -22 -5 -61 -11 -85 -14 -55 -39 -69
-102 -60 l-45 7 -13 69 c-13 76 -30 90 -48 40 -9 -28 -13 -30 -60 -30 l-51 0
0 63 c0 54 4 68 26 93 52 59 56 76 56 235 -1 168 0 169 76 169 46 0 102 18
102 32 0 6 -8 7 -17 3 -21 -8 -120 -25 -146 -25 -16 0 -18 9 -15 77 l3 77 85
18 c189 40 387 59 416 40z m-538 -295 l-3 -243 -40 -48 -40 -49 1 -106 c0 -80
6 -125 24 -184 13 -42 21 -79 19 -81 -17 -17 -187 -37 -334 -39 l-170 -2 0
133 0 133 -107 -5 c-60 -3 -159 -8 -220 -12 l-113 -5 30 21 c17 12 55 34 85
51 54 29 86 48 220 133 183 115 348 251 525 431 61 62 114 113 118 114 5 0 7
-108 5 -242z m-1901 161 c-3 -8 -6 -5 -6 6 -1 11 2 17 5 13 3 -3 4 -12 1 -19z
m0 -380 c10 -15 61 -52 86 -61 12 -5 17 -17 17 -47 0 -24 -4 -39 -10 -35 -5 3
-8 -13 -6 -42 2 -26 1 -34 -2 -18 l-5 30 -8 -30 -8 -30 2 32 c1 25 -7 40 -38
70 -22 21 -41 47 -42 58 -1 11 -5 35 -9 53 -6 33 7 44 23 20z m2492 -185 c-1
-32 -4 -71 -8 -88 -6 -29 -7 -28 -35 35 -15 36 -30 71 -33 77 -5 13 28 31 60
32 14 1 17 -8 16 -56z m881 32 c0 -9 11 -21 25 -27 14 -6 25 -18 25 -26 0 -10
-8 -13 -25 -10 -24 5 -25 3 -25 -39 0 -49 -33 -93 -70 -93 -26 0 -70 43 -70
68 0 26 30 60 55 64 27 4 32 -28 5 -37 -31 -10 -23 -50 10 -50 24 0 25 2 28
83 3 74 5 82 22 82 11 0 20 -7 20 -15z m420 -19 c0 -34 1 -35 34 -29 41 6 47
-2 51 -72 2 -41 -1 -55 -11 -55 -10 0 -14 15 -14 55 0 56 -6 63 -44 49 -12 -4
-16 -20 -16 -55 0 -27 -4 -49 -10 -49 -6 0 -10 38 -10 95 0 57 4 95 10 95 6 0
10 -15 10 -34z m380 -28 l0 -62 33 32 c40 39 56 42 28 6 -21 -27 -21 -30 11
-76 16 -24 17 -28 4 -28 -9 0 -23 14 -31 31 -13 25 -19 28 -31 18 -8 -6 -14
-20 -14 -30 0 -11 -4 -19 -10 -19 -6 0 -10 38 -10 95 0 57 4 95 10 95 6 0 10
-27 10 -62z m140 41 c0 -5 -7 -9 -15 -9 -15 0 -20 12 -9 23 8 8 24 -1 24 -14z
m150 -73 c0 -84 -2 -95 -17 -94 -10 0 -25 -2 -34 -6 -27 -12 -63 26 -63 67 0
49 20 70 61 65 31 -4 33 -2 33 29 0 18 5 33 10 33 6 0 10 -38 10 -94z m-842
48 c23 -26 30 -78 12 -89 -6 -4 -29 -8 -51 -9 -43 -4 -69 13 -69 43 0 48 74
52 86 6 3 -14 10 -25 15 -25 12 0 11 14 -3 45 -24 54 -110 39 -116 -20 -5 -46
19 -70 67 -69 51 2 51 -20 0 -24 -96 -8 -132 119 -46 162 40 20 75 13 105 -20z
m912 26 c0 -5 -7 -10 -15 -10 -8 0 -15 5 -15 10 0 6 7 10 15 10 8 0 15 -4 15
-10z m-809 -40 c10 0 19 -4 19 -10 0 -5 -9 -10 -20 -10 -16 0 -20 -7 -20 -34
0 -46 9 -66 29 -66 13 0 14 -2 2 -9 -30 -19 -51 6 -51 59 0 29 -5 50 -12 53
-9 4 -10 8 -2 14 6 4 14 17 19 28 8 19 9 19 12 -2 3 -15 12 -23 24 -23z m380
0 c10 0 19 -4 19 -10 0 -5 -9 -10 -20 -10 -16 0 -20 -7 -20 -37 0 -44 13 -69
29 -59 6 4 11 3 11 -3 0 -14 -23 -19 -42 -9 -14 6 -18 21 -18 58 0 29 -5 50
-12 53 -9 4 -10 8 -2 14 6 4 14 17 19 28 8 19 9 19 12 -2 3 -15 12 -23 24 -23z
m-93 -69 c2 -49 0 -62 -10 -59 -7 3 -22 2 -33 -2 -26 -10 -55 6 -55 30 0 21
35 50 62 50 10 0 18 7 18 16 0 13 -8 15 -35 12 -19 -2 -35 -1 -35 2 0 15 16
21 50 18 l35 -3 3 -64z m302 4 c0 -37 -4 -65 -10 -65 -11 0 -12 1 -12 55 0 64
1 75 12 75 6 0 10 -28 10 -65z m220 -18 c0 -51 -5 -88 -12 -95 -15 -15 -48
-16 -48 -2 0 6 6 10 14 10 20 0 26 23 26 101 0 39 4 69 10 69 6 0 10 -34 10
-83z m139 70 c6 -8 14 -27 17 -43 12 -59 -62 -102 -104 -60 -19 18 -20 80 -2
101 16 19 74 20 89 2z m78 -13 l16 -26 14 26 c8 14 18 26 23 26 14 0 13 -7 -6
-36 -15 -21 -15 -28 -3 -52 7 -15 15 -30 17 -34 2 -5 -1 -8 -7 -8 -6 0 -17 12
-24 27 l-14 26 -18 -26 c-25 -39 -41 -33 -17 7 20 33 20 33 0 65 -11 17 -15
31 -9 31 6 0 18 -12 28 -26z m125 -1 l16 -27 13 27 c7 15 16 27 21 27 12 0 10
-8 -9 -41 -15 -25 -15 -30 -1 -46 25 -30 30 -43 16 -43 -7 0 -21 12 -30 27
l-16 27 -13 -27 c-7 -15 -19 -27 -26 -27 -11 0 -10 8 7 35 l22 35 -22 30 c-15
21 -17 30 -8 30 7 0 21 -12 30 -27z m112 -5 c7 -18 16 -42 21 -53 6 -17 10
-12 24 29 10 28 23 52 31 54 9 3 11 -1 6 -14 -5 -11 -17 -46 -28 -79 -12 -33
-28 -68 -36 -77 -16 -20 -42 -24 -42 -8 0 6 7 10 15 10 27 0 27 44 1 104 -30
67 -30 66 -15 66 5 0 16 -15 23 -32z m-3034 -92 c0 -45 -14 -75 -38 -81 -31
-8 -39 0 -47 47 -6 30 -4 37 12 41 39 10 73 7 73 -7z m405 -23 c-9 -51 -11
-53 -49 -53 -29 0 -34 4 -40 31 -11 57 -10 59 45 59 l51 0 -7 -37z m-1045 -57
l0 -85 -46 5 c-25 2 -67 14 -92 25 -31 14 -56 19 -80 16 -26 -5 -33 -3 -28 8
2 7 0 15 -7 18 -8 2 -8 14 2 45 15 46 16 46 179 50 l72 2 0 -84z m-276 42 c-8
-15 -14 -35 -14 -46 0 -47 -116 -56 -152 -11 -11 12 -16 29 -13 38 3 8 3 12
-1 8 -8 -8 -34 11 -34 24 0 9 58 14 162 14 l66 0 -14 -27z m1102 -65 c-13 -54
-69 -72 -86 -27 -19 48 -14 54 41 54 51 0 51 0 45 -27z m-210 -35 c-3 -13 -6
-32 -7 -43 0 -13 -5 -8 -13 15 -15 39 -12 50 11 50 11 0 14 -6 9 -22z m397 16
c6 -7 -19 -64 -28 -64 -3 0 -5 16 -5 35 0 33 16 46 33 29z m-1028 -84 c3 -6
-1 -7 -9 -4 -18 7 -21 14 -7 14 6 0 13 -4 16 -10z"/>
<path d="M3565 4510 c-231 -46 -552 -158 -870 -305 -70 -32 -146 -77 -251
-149 -50 -34 -107 -87 -100 -93 3 -4 16 3 29 14 50 46 246 168 340 213 259
122 628 251 842 295 72 15 134 31 140 36 13 13 -26 10 -130 -11z"/>
<path d="M4270 4001 c-7 -15 -5 -24 8 -41 17 -22 18 -22 41 -3 20 17 22 22 12
41 -14 27 -47 29 -61 3z"/>
<path d="M3646 3985 c-9 -9 -16 -20 -16 -25 0 -11 29 -40 39 -40 16 0 32 29
29 52 -4 28 -30 35 -52 13z"/>
<path d="M3622 2535 c0 -16 2 -22 5 -12 2 9 2 23 0 30 -3 6 -5 -1 -5 -18z"/>
<path d="M3633 2445 c0 -33 2 -45 4 -27 2 18 2 45 0 60 -2 15 -4 0 -4 -33z"/>
<path d="M4458 3503 c7 -3 16 -2 19 1 4 3 -2 6 -13 5 -11 0 -14 -3 -6 -6z"/>
<path d="M4420 695 c0 -24 34 -87 64 -116 27 -27 99 -54 116 -44 20 12 9 24
-39 40 -47 15 -67 36 -107 109 -14 26 -34 32 -34 11z"/>
<path d="M6636 325 c-19 -52 6 -95 44 -75 17 9 20 19 18 48 -3 32 -7 37 -29
40 -17 2 -29 -3 -33 -13z"/>
<path d="M5797 324 c-9 -10 2 -24 19 -24 8 0 14 7 14 15 0 15 -21 21 -33 9z"/>
<path d="M6217 287 c-27 -9 -35 -36 -12 -44 17 -5 48 22 44 39 -3 12 -10 13
-32 5z"/>
<path d="M6856 325 c-12 -32 -6 -64 15 -75 30 -17 51 5 47 49 -3 30 -7 36 -29
39 -17 2 -29 -3 -33 -13z"/>
</g>
</svg>
